<svg id='main-menu-background'
    xmlns="http://www.w3.org/2000/svg" viewBox="0 0 660 440">
    <path fill="#0A6DFE" fill-opacity="1" d="M0,64L30,69.3C60,75,120,85,180,101.3C240,117,300,139,360,144C420,149,480,139,540,133.3C600,128,660,128,720,144C780,160,840,192,900,176C960,160,1020,96,1080,85.3C1140,75,1200,117,1260,122.7C1320,128,1380,96,1410,80L1440,64L1440,320L1410,320C1380,320,1320,320,1260,320C1200,320,1140,320,1080,320C1020,320,960,320,900,320C840,320,780,320,720,320C660,320,600,320,540,320C480,320,420,320,360,320C300,320,240,320,180,320C120,320,60,320,30,320L0,320Z"></path>
</svg>